<?xml version="1.0" encoding="utf-8"?>
<!-- Generator: Adobe Illustrator 16.0.0, SVG Export Plug-In . SVG Version: 6.00 Build 0)  -->
<!DOCTYPE svg PUBLIC "-//W3C//DTD SVG 1.1//EN" "http://www.w3.org/Graphics/SVG/1.1/DTD/svg11.dtd">
<svg version="1.1" id="Layer_1" xmlns="http://www.w3.org/2000/svg" xmlns:xlink="http://www.w3.org/1999/xlink" x="0px" y="0px"
	 width="177.5px" height="59.861px" viewBox="0 0 177.5 59.861" enable-background="new 0 0 177.5 59.861" xml:space="preserve">
<polygon fill="#373737" points="23.484,6.015 14.24,19.197 9.274,31.812 7.049,43.987 10.474,51.381 23.484,55.662 31.126,53.606 
	37.522,49.328 43.171,41.966 43.171,31.812 34.783,15.431 26.395,3.618 "/>
<g>
	<path fill="#FFFFFF" d="M18.951,37.901c0,3.359,2.728,6.086,6.089,6.086c3.362,0,6.086-2.727,6.086-6.086
		c0-3.364-2.724-6.089-6.086-6.089C21.679,31.811,18.951,34.537,18.951,37.901z"/>
</g>
<g>
	<path fill="#FFFFFF" d="M27.056,0.482l-0.31-0.133C26.201,0.117,25.621,0,25.04,0c-0.574,0-1.147,0.115-1.686,0.342L23.04,0.475
		c-0.647,0.273-1.221,0.702-1.667,1.243C19.391,4.132,2,25.646,2,37.87c0,16.134,13.779,21.991,23.04,21.991
		c8.908,0,23.04-5.97,23.04-21.991c0-12.225-17.394-33.738-19.375-36.152C28.262,1.18,27.695,0.756,27.056,0.482z M25.04,51.178
		c-0.586,0-14.358-0.149-14.358-13.308c0-5.913,7.872-18.227,14.358-26.775c6.484,8.543,14.356,20.852,14.356,26.775
		C39.396,51.026,25.184,51.178,25.04,51.178z"/>
</g>
<g>
	<path fill="#FFFFFF" d="M74.328,36.913c0,3.164-2.828,5.461-7.168,5.461c-2.8,0-5.04-0.645-6.664-1.344
		c-0.42-0.168-0.784-0.645-0.784-1.148c0-0.616,0.448-1.176,1.148-1.176c0.168,0,0.336,0.027,0.532,0.111
		c1.26,0.561,3.108,1.148,5.516,1.148c2.772,0,4.9-0.784,4.9-3.221c0-4.144-11.9-1.848-11.9-8.735c0-3.108,2.52-5.74,7.252-5.74
		c2.184,0,4.06,0.364,5.572,0.924c0.392,0.14,0.784,0.448,0.784,1.12c0,0.56-0.42,1.176-1.12,1.176c-0.14,0-0.308-0.056-0.448-0.112
		c-1.288-0.448-2.8-0.756-4.508-0.756c-2.828,0-4.984,1.092-4.984,3.192C62.456,32.657,74.328,29.522,74.328,36.913z"/>
	<path fill="#FFFFFF" d="M92.64,40.918c0,0.672-0.532,1.176-1.204,1.176H80.208c-0.7,0-1.26-0.56-1.26-1.26V23.838
		c0-0.7,0.56-1.288,1.26-1.288h11.228c0.672,0,1.204,0.532,1.204,1.204s-0.532,1.176-1.204,1.176h-9.94v6.188h8.932
		c0.672,0,1.204,0.532,1.204,1.204c0,0.672-0.532,1.176-1.204,1.176h-8.932v6.217h9.94C92.108,39.714,92.64,40.245,92.64,40.918z"/>
	<path fill="#FFFFFF" d="M110.84,36.913c0,3.164-2.828,5.461-7.168,5.461c-2.801,0-5.041-0.645-6.665-1.344
		c-0.42-0.168-0.784-0.645-0.784-1.148c0-0.616,0.448-1.176,1.148-1.176c0.168,0,0.336,0.027,0.532,0.111
		c1.261,0.561,3.108,1.148,5.517,1.148c2.771,0,4.9-0.784,4.9-3.221c0-4.144-11.901-1.848-11.901-8.735
		c0-3.108,2.52-5.74,7.252-5.74c2.184,0,4.059,0.364,5.572,0.924c0.391,0.14,0.783,0.448,0.783,1.12c0,0.56-0.42,1.176-1.119,1.176
		c-0.141,0-0.309-0.056-0.449-0.112c-1.287-0.448-2.8-0.756-4.508-0.756c-2.828,0-4.984,1.092-4.984,3.192
		C98.967,32.657,110.84,29.522,110.84,36.913z"/>
	<path fill="#FFFFFF" d="M131.559,40.974c0,0.7-0.477,1.26-1.26,1.26c-0.533,0-0.98-0.279-1.205-0.783l-1.818-4.369h-9.521
		l-1.818,4.369c-0.225,0.504-0.674,0.783-1.205,0.783c-0.783,0-1.26-0.56-1.26-1.26c0-0.168,0.057-0.363,0.141-0.561l7.139-16.855
		c0.252-0.588,0.785-1.148,1.625-1.148h0.279c0.84,0,1.373,0.56,1.625,1.148l7.139,16.855
		C131.502,40.61,131.559,40.806,131.559,40.974z M126.295,34.758l-3.781-9.1l-3.779,9.1H126.295z"/>
	<path fill="#FFFFFF" d="M157.291,24.258v16.716c0,0.7-0.561,1.26-1.26,1.26c-0.701,0-1.289-0.56-1.289-1.26V25.07l-6.467,15.988
		c-0.309,0.7-0.98,1.176-1.793,1.176s-1.484-0.476-1.791-1.176l-6.469-15.988v15.904c0,0.7-0.588,1.26-1.289,1.26
		c-0.699,0-1.26-0.56-1.26-1.26V24.258c0-1.008,0.812-1.848,1.82-1.848h0.924c0.756,0,1.428,0.504,1.709,1.176l6.355,15.848
		l6.355-15.848c0.281-0.672,0.953-1.176,1.709-1.176h0.924C156.479,22.41,157.291,23.25,157.291,24.258z"/>
	<path fill="#FFFFFF" d="M177.115,40.918c0,0.672-0.533,1.176-1.205,1.176h-11.229c-0.699,0-1.26-0.56-1.26-1.26V23.838
		c0-0.7,0.561-1.288,1.26-1.288h11.229c0.672,0,1.205,0.532,1.205,1.204s-0.533,1.176-1.205,1.176h-9.939v6.188h8.932
		c0.672,0,1.205,0.532,1.205,1.204c0,0.672-0.533,1.176-1.205,1.176h-8.932v6.217h9.939
		C176.582,39.714,177.115,40.245,177.115,40.918z"/>
</g>
</svg>
