<?xml version="1.0" encoding="utf-8"?>
<!-- Generator: Adobe Illustrator 16.0.0, SVG Export Plug-In . SVG Version: 6.00 Build 0)  -->
<!DOCTYPE svg PUBLIC "-//W3C//DTD SVG 1.1//EN" "http://www.w3.org/Graphics/SVG/1.1/DTD/svg11.dtd">
<svg version="1.1" id="Layer_1" xmlns="http://www.w3.org/2000/svg" xmlns:xlink="http://www.w3.org/1999/xlink" x="0px" y="0px"
	 width="100px" height="100px" viewBox="0 0 100 100" enable-background="new 0 0 100 100" xml:space="preserve">
<circle fill="#373737" cx="50.08" cy="49.964" r="49.09"/>
<rect x="29.29" y="43.5" fill="none" width="41.42" height="14"/>
<g enable-background="new    ">
	<path fill="#FFFFFF" d="M39.894,48.901c-0.056,2.928-1.933,5.029-4.917,5.029c-2.998,0-4.86-2.102-4.917-5.029
		c0.056-2.928,1.919-5.028,4.917-5.028C37.961,43.873,39.838,45.974,39.894,48.901z M38.619,48.901c0-2.157-1.331-3.838-3.642-3.838
		c-2.325,0-3.642,1.681-3.642,3.838c0,2.158,1.317,3.838,3.642,3.838C37.289,52.739,38.619,51.059,38.619,48.901z"/>
	<path fill="#FFFFFF" d="M49.567,47.122c0,1.485-0.911,3.11-3.74,3.11h-2.549v2.997c0,0.352-0.294,0.631-0.644,0.631
		c-0.351,0-0.63-0.279-0.63-0.631v-8.571c0-0.351,0.28-0.645,0.63-0.645h3.193C48.656,44.013,49.567,45.638,49.567,47.122z
		 M48.292,47.122c0-0.91-0.504-1.904-2.591-1.904h-2.423v3.81h2.423C47.788,49.027,48.292,48.033,48.292,47.122z"/>
	<path fill="#FFFFFF" d="M58.219,53.202c0,0.336-0.267,0.588-0.604,0.588h-5.616c-0.351,0-0.63-0.28-0.63-0.63v-8.503
		c0-0.351,0.279-0.645,0.63-0.645h5.616c0.337,0,0.604,0.267,0.604,0.603c0,0.336-0.267,0.588-0.604,0.588h-4.973v3.096h4.469
		c0.336,0,0.603,0.267,0.603,0.603s-0.267,0.588-0.603,0.588h-4.469V52.6h4.973C57.952,52.6,58.219,52.865,58.219,53.202z"/>
	<path fill="#FFFFFF" d="M68.83,44.587v8.362c0,0.505-0.42,0.91-0.924,0.91h-0.168c-0.309,0-0.574-0.153-0.742-0.379l-5.422-7.83
		v7.578c0,0.352-0.293,0.631-0.645,0.631c-0.351,0-0.63-0.279-0.63-0.631v-8.361c0-0.504,0.406-0.925,0.91-0.925h0.183
		c0.309,0,0.573,0.168,0.771,0.421l5.394,7.788v-7.563c0-0.35,0.279-0.645,0.631-0.645C68.538,43.942,68.83,44.237,68.83,44.587z"/>
</g>
</svg>
