<?xml version="1.0" encoding="utf-8"?>
<!-- Generator: Adobe Illustrator 16.0.0, SVG Export Plug-In . SVG Version: 6.00 Build 0)  -->
<!DOCTYPE svg PUBLIC "-//W3C//DTD SVG 1.1//EN" "http://www.w3.org/Graphics/SVG/1.1/DTD/svg11.dtd">
<svg version="1.1" id="Layer_1" xmlns="http://www.w3.org/2000/svg" xmlns:xlink="http://www.w3.org/1999/xlink" x="0px" y="0px"
	 width="16.759px" height="35.993px" viewBox="0 -14.659 16.759 35.993" enable-background="new 0 -14.659 16.759 35.993"
	 xml:space="preserve">
<g>
	<path fill="#FFD170" d="M8.469,15.976C6.69,13.404,4.366,9.687,3.438,6.638C3.21,5.993,3.109,5.45,3.087,4.892L3.082,4.694
		c0-2.972,2.417-5.391,5.39-5.391c2.972,0,5.391,2.417,5.391,5.391L13.86,4.881c-0.022,0.566-0.126,1.112-0.31,1.626
		C12.595,9.636,10.254,13.39,8.469,15.976z"/>
	<path fill="#373737" d="M8.472,2.201c1.368,0,2.483,1.108,2.493,2.542l-0.001,0.025c-0.01,0.272-0.06,0.526-0.145,0.761
		l-0.046,0.136L10.733,5.8c-0.438,1.443-1.288,3.146-2.257,4.806C7.5,8.938,6.646,7.231,6.21,5.794l-0.041-0.13L6.124,5.537
		C6.039,5.3,5.991,5.048,5.983,4.788L5.98,4.731L5.978,4.694C5.978,3.32,7.097,2.201,8.472,2.201 M8.472-3.593
		c-4.576,0-8.287,3.71-8.287,8.287c0,0.099,0.003,0.198,0.008,0.3C0.224,5.862,0.388,6.697,0.667,7.48
		c1.767,5.813,7.805,13.395,7.805,13.395s6.038-7.578,7.804-13.392c0.278-0.784,0.443-1.621,0.478-2.489
		c0.006-0.102,0.006-0.201,0.006-0.3C16.759,0.118,13.047-3.593,8.472-3.593L8.472-3.593z"/>
</g>
<g>
	<circle fill="#373737" cx="8.472" cy="-9.843" r="4.816"/>
</g>
</svg>
